<svg width="14" height="14" viewBox="0 0 14 14" fill="none" xmlns="http://www.w3.org/2000/svg">
<g id="Star">
<path id="Star_2" d="M10.7901 8.54675C10.6174 8.71408 10.5381 8.95608 10.5774 9.19341L11.1701 12.4734C11.2201 12.7514 11.1028 13.0327 10.8701 13.1934C10.6421 13.3601 10.3388 13.3801 10.0901 13.2467L7.13742 11.7067C7.03476 11.6521 6.92076 11.6227 6.80409 11.6194H6.62342C6.56076 11.6287 6.49942 11.6487 6.44342 11.6794L3.49009 13.2267C3.34409 13.3001 3.17876 13.3261 3.01676 13.3001C2.62209 13.2254 2.35876 12.8494 2.42342 12.4527L3.01676 9.17275C3.05609 8.93341 2.97676 8.69008 2.80409 8.52008L0.396756 6.18675C0.195423 5.99141 0.125423 5.69808 0.217423 5.43341C0.306756 5.16941 0.534756 4.97675 0.810089 4.93341L4.12342 4.45275C4.37542 4.42675 4.59676 4.27341 4.71009 4.04675L6.17009 1.05341C6.20476 0.986748 6.24942 0.925415 6.30342 0.873415L6.36342 0.826748C6.39476 0.792081 6.43076 0.763415 6.47076 0.740081L6.54342 0.713415L6.65676 0.666748H6.93742C7.18809 0.692748 7.40876 0.842748 7.52409 1.06675L9.00342 4.04675C9.11009 4.26475 9.31742 4.41608 9.55676 4.45275L12.8701 4.93341C13.1501 4.97341 13.3841 5.16675 13.4768 5.43341C13.5641 5.70075 13.4888 5.99408 13.2834 6.18675L10.7901 8.54675Z" fill="#FDC040"/>
</g>
</svg>
